<?xml version="1.0" encoding="UTF-8" standalone="no"?>
<!-- Created with Inkscape (http://www.inkscape.org/) -->

<svg
   width="238.45424"
   height="266.44543"
   viewBox="0 0 63.091019 70.497025"
   version="1.1"
   id="svg395"
   inkscape:version="1.1.2 (0a00cf5339, 2022-02-04)"
   sodipodi:docname="favicon.svg"
   xmlns:inkscape="http://www.inkscape.org/namespaces/inkscape"
   xmlns:sodipodi="http://sodipodi.sourceforge.net/DTD/sodipodi-0.dtd"
   xmlns="http://www.w3.org/2000/svg"
   xmlns:svg="http://www.w3.org/2000/svg">
  <sodipodi:namedview
     id="namedview397"
     pagecolor="#ffffff"
     bordercolor="#666666"
     borderopacity="1.0"
     inkscape:pageshadow="2"
     inkscape:pageopacity="0.0"
     inkscape:pagecheckerboard="0"
     inkscape:document-units="mm"
     showgrid="false"
     fit-margin-top="0"
     fit-margin-left="0"
     fit-margin-right="0"
     fit-margin-bottom="0"
     units="px"
     inkscape:zoom="1.1474186"
     inkscape:cx="91.945518"
     inkscape:cy="224.85255"
     inkscape:window-width="1920"
     inkscape:window-height="1005"
     inkscape:window-x="0"
     inkscape:window-y="0"
     inkscape:window-maximized="1"
     inkscape:current-layer="layer1" />
  <defs
     id="defs392" />
  <g
     inkscape:label="Warstwa 1"
     inkscape:groupmode="layer"
     id="layer1"
     transform="translate(-37.631511,-60.215776)">
    <g
       transform="matrix(0.37208354,0.08565568,-0.08565568,0.37208354,-150.42148,-401.87163)"
       id="g104"
       inkscape:export-filename="/tmp/g76.png"
       inkscape:export-xdpi="29.985348"
       inkscape:export-ydpi="29.985348"
       style="clip-rule:evenodd;fill-rule:evenodd;stroke-linejoin:round;stroke-miterlimit:2">
      <rect
         x="877.78699"
         y="1064.02"
         width="42.123001"
         height="34.708"
         style="fill:#415242;fill-rule:nonzero"
         id="rect102" />
    </g>
    <g
       transform="matrix(0.37208354,0.08565568,-0.08565568,0.37208354,-150.42148,-401.87163)"
       id="g108"
       inkscape:export-filename="/tmp/g76.png"
       inkscape:export-xdpi="29.985348"
       inkscape:export-ydpi="29.985348"
       style="clip-rule:evenodd;fill-rule:evenodd;stroke-linejoin:round;stroke-miterlimit:2">
      <rect
         x="775.09698"
         y="1063.46"
         width="42.123001"
         height="34.708"
         style="fill:#b5cab2;fill-rule:nonzero"
         id="rect106" />
    </g>
    <g
       transform="matrix(0.37208354,0.08565568,-0.08565568,0.37208354,-150.42148,-401.87163)"
       id="g112"
       inkscape:export-filename="/tmp/g76.png"
       inkscape:export-xdpi="29.985348"
       inkscape:export-ydpi="29.985348"
       style="clip-rule:evenodd;fill-rule:evenodd;stroke-linejoin:round;stroke-miterlimit:2">
      <path
         d="m 877.787,1106.05 v 55.07 c 0,11.1 -2.974,19.51 -8.924,25.22 -4.576,4.4 -10.49,7.1 -17.742,8.11 v 39.31 c 21.666,-1.14 38.249,-7.78 49.751,-19.93 12.692,-13.41 19.038,-31.14 19.038,-53.19 v -54.59 z"
         style="fill:#415242;fill-rule:nonzero"
         id="path110" />
    </g>
    <g
       transform="matrix(0.37208354,0.08565568,-0.08565568,0.37208354,-150.42148,-401.87163)"
       id="g116"
       inkscape:export-filename="/tmp/g76.png"
       inkscape:export-xdpi="29.985348"
       inkscape:export-ydpi="29.985348"
       style="clip-rule:evenodd;fill-rule:evenodd;stroke-linejoin:round;stroke-miterlimit:2">
      <path
         d="m 817.22,1105.5 v 55.06 c 0,11.11 2.974,19.52 8.924,25.23 4.576,4.39 10.49,7.09 17.742,8.11 v 39.31 c -21.666,-1.14 -38.249,-7.79 -49.751,-19.93 -12.692,-13.41 -19.038,-31.14 -19.038,-53.19 v -54.59 z"
         style="fill:#b5cab2;fill-rule:nonzero"
         id="path114" />
    </g>
  </g>
</svg>
